<?xml version="1.0" encoding="UTF-8" standalone="no"?>
<!DOCTYPE svg PUBLIC "-//W3C//DTD SVG 1.1//EN"
 "http://www.w3.org/Graphics/SVG/1.1/DTD/svg11.dtd">
<!-- Generated by graphviz version 2.48.0 (20210717.1556)
 -->
<!-- Pages: 1 -->
<svg width="1115pt" height="620pt"
 viewBox="0.00 0.00 1115.00 620.00" xmlns="http://www.w3.org/2000/svg" xmlns:xlink="http://www.w3.org/1999/xlink">
<g id="graph0" class="graph" transform="scale(1 1) rotate(0) translate(4 616)">
<polygon fill="white" stroke="transparent" points="-4,4 -4,-616 1111,-616 1111,4 -4,4"/>
<!-- [root] aws_instance.instance01 (expand) -->
<g id="node1" class="node">
<title>[root] aws_instance.instance01 (expand)</title>
<polygon fill="none" stroke="black" points="424,-396 269,-396 269,-360 424,-360 424,-396"/>
<text text-anchor="middle" x="346.5" y="-374.3" font-family="Times,serif" font-size="14.00">aws_instance.instance01</text>
</g>
<!-- [root] aws_network_interface.ni01 (expand) -->
<g id="node5" class="node">
<title>[root] aws_network_interface.ni01 (expand)</title>
<polygon fill="none" stroke="black" points="463,-324 288,-324 288,-288 463,-288 463,-324"/>
<text text-anchor="middle" x="375.5" y="-302.3" font-family="Times,serif" font-size="14.00">aws_network_interface.ni01</text>
</g>
<!-- [root] aws_instance.instance01 (expand)&#45;&gt;[root] aws_network_interface.ni01 (expand) -->
<g id="edge1" class="edge">
<title>[root] aws_instance.instance01 (expand)&#45;&gt;[root] aws_network_interface.ni01 (expand)</title>
<path fill="none" stroke="black" d="M353.67,-359.7C356.93,-351.81 360.87,-342.3 364.5,-333.55"/>
<polygon fill="black" stroke="black" points="367.82,-334.68 368.41,-324.1 361.35,-332 367.82,-334.68"/>
</g>
<!-- [root] aws_instance.instance02 (expand) -->
<g id="node2" class="node">
<title>[root] aws_instance.instance02 (expand)</title>
<polygon fill="none" stroke="black" points="597,-396 442,-396 442,-360 597,-360 597,-396"/>
<text text-anchor="middle" x="519.5" y="-374.3" font-family="Times,serif" font-size="14.00">aws_instance.instance02</text>
</g>
<!-- [root] aws_security_group.sg01 (expand) -->
<g id="node8" class="node">
<title>[root] aws_security_group.sg01 (expand)</title>
<polygon fill="none" stroke="black" points="599,-252 440,-252 440,-216 599,-216 599,-252"/>
<text text-anchor="middle" x="519.5" y="-230.3" font-family="Times,serif" font-size="14.00">aws_security_group.sg01</text>
</g>
<!-- [root] aws_instance.instance02 (expand)&#45;&gt;[root] aws_security_group.sg01 (expand) -->
<g id="edge2" class="edge">
<title>[root] aws_instance.instance02 (expand)&#45;&gt;[root] aws_security_group.sg01 (expand)</title>
<path fill="none" stroke="black" d="M519.5,-359.87C519.5,-335.67 519.5,-291.21 519.5,-262.39"/>
<polygon fill="black" stroke="black" points="523,-262.19 519.5,-252.19 516,-262.19 523,-262.19"/>
</g>
<!-- [root] aws_instance.instance03 (expand) -->
<g id="node3" class="node">
<title>[root] aws_instance.instance03 (expand)</title>
<polygon fill="none" stroke="black" points="999,-396 844,-396 844,-360 999,-360 999,-396"/>
<text text-anchor="middle" x="921.5" y="-374.3" font-family="Times,serif" font-size="14.00">aws_instance.instance03</text>
</g>
<!-- [root] provider[&quot;registry.terraform.io/hashicorp/aws&quot;] -->
<g id="node14" class="node">
<title>[root] provider[&quot;registry.terraform.io/hashicorp/aws&quot;]</title>
<polygon fill="none" stroke="black" points="818.5,-36 560.43,-18 818.5,0 1076.57,-18 818.5,-36"/>
<text text-anchor="middle" x="818.5" y="-14.3" font-family="Times,serif" font-size="14.00">provider[&quot;registry.terraform.io/hashicorp/aws&quot;]</text>
</g>
<!-- [root] aws_instance.instance03 (expand)&#45;&gt;[root] provider[&quot;registry.terraform.io/hashicorp/aws&quot;] -->
<g id="edge3" class="edge">
<title>[root] aws_instance.instance03 (expand)&#45;&gt;[root] provider[&quot;registry.terraform.io/hashicorp/aws&quot;]</title>
<path fill="none" stroke="black" d="M920.91,-359.95C920.03,-333.3 918.5,-280.12 918.5,-235 918.5,-235 918.5,-235 918.5,-161 918.5,-111.39 877.19,-66.89 847.68,-41.43"/>
<polygon fill="black" stroke="black" points="849.62,-38.5 839.71,-34.76 845.13,-43.86 849.62,-38.5"/>
</g>
<!-- [root] aws_internet_gateway.ig01 (expand) -->
<g id="node4" class="node">
<title>[root] aws_internet_gateway.ig01 (expand)</title>
<polygon fill="none" stroke="black" points="847,-180 678,-180 678,-144 847,-144 847,-180"/>
<text text-anchor="middle" x="762.5" y="-158.3" font-family="Times,serif" font-size="14.00">aws_internet_gateway.ig01</text>
</g>
<!-- [root] aws_vpc.vpc01 (expand) -->
<g id="node10" class="node">
<title>[root] aws_vpc.vpc01 (expand)</title>
<polygon fill="none" stroke="black" points="814,-108 711,-108 711,-72 814,-72 814,-108"/>
<text text-anchor="middle" x="762.5" y="-86.3" font-family="Times,serif" font-size="14.00">aws_vpc.vpc01</text>
</g>
<!-- [root] aws_internet_gateway.ig01 (expand)&#45;&gt;[root] aws_vpc.vpc01 (expand) -->
<g id="edge4" class="edge">
<title>[root] aws_internet_gateway.ig01 (expand)&#45;&gt;[root] aws_vpc.vpc01 (expand)</title>
<path fill="none" stroke="black" d="M762.5,-143.7C762.5,-135.98 762.5,-126.71 762.5,-118.11"/>
<polygon fill="black" stroke="black" points="766,-118.1 762.5,-108.1 759,-118.1 766,-118.1"/>
</g>
<!-- [root] aws_network_interface.ni01 (expand)&#45;&gt;[root] aws_security_group.sg01 (expand) -->
<g id="edge5" class="edge">
<title>[root] aws_network_interface.ni01 (expand)&#45;&gt;[root] aws_security_group.sg01 (expand)</title>
<path fill="none" stroke="black" d="M410.73,-287.88C430.08,-278.47 454.27,-266.71 474.93,-256.67"/>
<polygon fill="black" stroke="black" points="476.67,-259.71 484.14,-252.19 473.61,-253.41 476.67,-259.71"/>
</g>
<!-- [root] aws_route_table.rt01 (expand) -->
<g id="node6" class="node">
<title>[root] aws_route_table.rt01 (expand)</title>
<polygon fill="none" stroke="black" points="805.5,-324 671.5,-324 671.5,-288 805.5,-288 805.5,-324"/>
<text text-anchor="middle" x="738.5" y="-302.3" font-family="Times,serif" font-size="14.00">aws_route_table.rt01</text>
</g>
<!-- [root] aws_route_table.rt01 (expand)&#45;&gt;[root] aws_internet_gateway.ig01 (expand) -->
<g id="edge6" class="edge">
<title>[root] aws_route_table.rt01 (expand)&#45;&gt;[root] aws_internet_gateway.ig01 (expand)</title>
<path fill="none" stroke="black" d="M741.39,-287.87C745.49,-263.67 753,-219.21 757.87,-190.39"/>
<polygon fill="black" stroke="black" points="761.38,-190.63 759.59,-180.19 754.48,-189.47 761.38,-190.63"/>
</g>
<!-- [root] aws_route_table_association.rta01 (expand) -->
<g id="node7" class="node">
<title>[root] aws_route_table_association.rta01 (expand)</title>
<polygon fill="none" stroke="black" points="825.5,-396 615.5,-396 615.5,-360 825.5,-360 825.5,-396"/>
<text text-anchor="middle" x="720.5" y="-374.3" font-family="Times,serif" font-size="14.00">aws_route_table_association.rta01</text>
</g>
<!-- [root] aws_route_table_association.rta01 (expand)&#45;&gt;[root] aws_route_table.rt01 (expand) -->
<g id="edge7" class="edge">
<title>[root] aws_route_table_association.rta01 (expand)&#45;&gt;[root] aws_route_table.rt01 (expand)</title>
<path fill="none" stroke="black" d="M724.95,-359.7C726.95,-351.9 729.37,-342.51 731.6,-333.83"/>
<polygon fill="black" stroke="black" points="735,-334.66 734.1,-324.1 728.22,-332.92 735,-334.66"/>
</g>
<!-- [root] aws_subnet.sn01 (expand) -->
<g id="node9" class="node">
<title>[root] aws_subnet.sn01 (expand)</title>
<polygon fill="none" stroke="black" points="659.5,-180 547.5,-180 547.5,-144 659.5,-144 659.5,-180"/>
<text text-anchor="middle" x="603.5" y="-158.3" font-family="Times,serif" font-size="14.00">aws_subnet.sn01</text>
</g>
<!-- [root] aws_route_table_association.rta01 (expand)&#45;&gt;[root] aws_subnet.sn01 (expand) -->
<g id="edge8" class="edge">
<title>[root] aws_route_table_association.rta01 (expand)&#45;&gt;[root] aws_subnet.sn01 (expand)</title>
<path fill="none" stroke="black" d="M697.08,-360C685.38,-350.5 671.77,-337.82 662.5,-324 634.07,-281.61 617.26,-223.79 609.25,-190.22"/>
<polygon fill="black" stroke="black" points="612.61,-189.18 606.96,-180.22 605.78,-190.75 612.61,-189.18"/>
</g>
<!-- [root] aws_security_group.sg01 (expand)&#45;&gt;[root] aws_subnet.sn01 (expand) -->
<g id="edge9" class="edge">
<title>[root] aws_security_group.sg01 (expand)&#45;&gt;[root] aws_subnet.sn01 (expand)</title>
<path fill="none" stroke="black" d="M540.26,-215.7C550.74,-206.97 563.61,-196.24 575,-186.75"/>
<polygon fill="black" stroke="black" points="577.53,-189.19 582.97,-180.1 573.05,-183.82 577.53,-189.19"/>
</g>
<!-- [root] aws_subnet.sn01 (expand)&#45;&gt;[root] aws_vpc.vpc01 (expand) -->
<g id="edge10" class="edge">
<title>[root] aws_subnet.sn01 (expand)&#45;&gt;[root] aws_vpc.vpc01 (expand)</title>
<path fill="none" stroke="black" d="M642.4,-143.88C664.13,-134.31 691.4,-122.3 714.46,-112.15"/>
<polygon fill="black" stroke="black" points="715.99,-115.3 723.73,-108.07 713.17,-108.89 715.99,-115.3"/>
</g>
<!-- [root] aws_vpc.vpc01 (expand)&#45;&gt;[root] provider[&quot;registry.terraform.io/hashicorp/aws&quot;] -->
<g id="edge11" class="edge">
<title>[root] aws_vpc.vpc01 (expand)&#45;&gt;[root] provider[&quot;registry.terraform.io/hashicorp/aws&quot;]</title>
<path fill="none" stroke="black" d="M776.34,-71.7C783.26,-63.05 791.73,-52.46 799.27,-43.04"/>
<polygon fill="black" stroke="black" points="802.07,-45.14 805.58,-35.14 796.6,-40.77 802.07,-45.14"/>
</g>
<!-- [root] output.instance_01_public_ip -->
<g id="node11" class="node">
<title>[root] output.instance_01_public_ip</title>
<polygon fill="none" stroke="black" points="177,-468 0,-468 0,-432 183,-432 183,-462 177,-468"/>
<polyline fill="none" stroke="black" points="177,-468 177,-462 "/>
<polyline fill="none" stroke="black" points="183,-462 177,-462 "/>
<text text-anchor="middle" x="91.5" y="-446.3" font-family="Times,serif" font-size="14.00">output.instance_01_public_ip</text>
</g>
<!-- [root] output.instance_01_public_ip&#45;&gt;[root] aws_instance.instance01 (expand) -->
<g id="edge16" class="edge">
<title>[root] output.instance_01_public_ip&#45;&gt;[root] aws_instance.instance01 (expand)</title>
<path fill="none" stroke="black" d="M153.55,-431.97C189.96,-421.97 236.13,-409.3 274.18,-398.85"/>
<polygon fill="black" stroke="black" points="275.45,-402.13 284.17,-396.11 273.6,-395.38 275.45,-402.13"/>
</g>
<!-- [root] output.instance_02_public_ip -->
<g id="node12" class="node">
<title>[root] output.instance_02_public_ip</title>
<polygon fill="none" stroke="black" points="861,-468 684,-468 684,-432 867,-432 867,-462 861,-468"/>
<polyline fill="none" stroke="black" points="861,-468 861,-462 "/>
<polyline fill="none" stroke="black" points="867,-462 861,-462 "/>
<text text-anchor="middle" x="775.5" y="-446.3" font-family="Times,serif" font-size="14.00">output.instance_02_public_ip</text>
</g>
<!-- [root] output.instance_02_public_ip&#45;&gt;[root] aws_instance.instance02 (expand) -->
<g id="edge17" class="edge">
<title>[root] output.instance_02_public_ip&#45;&gt;[root] aws_instance.instance02 (expand)</title>
<path fill="none" stroke="black" d="M713.2,-431.97C676.66,-421.97 630.31,-409.3 592.11,-398.85"/>
<polygon fill="black" stroke="black" points="592.65,-395.37 582.08,-396.11 590.8,-402.12 592.65,-395.37"/>
</g>
<!-- [root] output.instance_03_public_ip -->
<g id="node13" class="node">
<title>[root] output.instance_03_public_ip</title>
<polygon fill="none" stroke="black" points="1101,-468 924,-468 924,-432 1107,-432 1107,-462 1101,-468"/>
<polyline fill="none" stroke="black" points="1101,-468 1101,-462 "/>
<polyline fill="none" stroke="black" points="1107,-462 1101,-462 "/>
<text text-anchor="middle" x="1015.5" y="-446.3" font-family="Times,serif" font-size="14.00">output.instance_03_public_ip</text>
</g>
<!-- [root] output.instance_03_public_ip&#45;&gt;[root] aws_instance.instance03 (expand) -->
<g id="edge18" class="edge">
<title>[root] output.instance_03_public_ip&#45;&gt;[root] aws_instance.instance03 (expand)</title>
<path fill="none" stroke="black" d="M992.26,-431.7C980.31,-422.8 965.58,-411.82 952.65,-402.2"/>
<polygon fill="black" stroke="black" points="954.58,-399.27 944.47,-396.1 950.4,-404.88 954.58,-399.27"/>
</g>
<!-- [root] meta.count&#45;boundary (EachMode fixup) -->
<g id="node15" class="node">
<title>[root] meta.count&#45;boundary (EachMode fixup)</title>
<ellipse fill="none" stroke="black" cx="775.5" cy="-522" rx="180.07" ry="18"/>
<text text-anchor="middle" x="775.5" y="-518.3" font-family="Times,serif" font-size="14.00">[root] meta.count&#45;boundary (EachMode fixup)</text>
</g>
<!-- [root] meta.count&#45;boundary (EachMode fixup)&#45;&gt;[root] aws_route_table_association.rta01 (expand) -->
<g id="edge12" class="edge">
<title>[root] meta.count&#45;boundary (EachMode fixup)&#45;&gt;[root] aws_route_table_association.rta01 (expand)</title>
<path fill="none" stroke="black" d="M830.89,-504.82C848.6,-496.74 866.25,-484.95 876.5,-468 884.78,-454.31 885.82,-445.01 876.5,-432 866.03,-417.38 851.29,-406.75 835.02,-399.02"/>
<polygon fill="black" stroke="black" points="836.41,-395.81 825.84,-395.02 833.61,-402.23 836.41,-395.81"/>
</g>
<!-- [root] meta.count&#45;boundary (EachMode fixup)&#45;&gt;[root] output.instance_01_public_ip -->
<g id="edge13" class="edge">
<title>[root] meta.count&#45;boundary (EachMode fixup)&#45;&gt;[root] output.instance_01_public_ip</title>
<path fill="none" stroke="black" d="M632.06,-511.11C516.17,-502.39 348.67,-488.13 193.23,-468.17"/>
<polygon fill="black" stroke="black" points="193.38,-464.66 183.01,-466.85 192.48,-471.6 193.38,-464.66"/>
</g>
<!-- [root] meta.count&#45;boundary (EachMode fixup)&#45;&gt;[root] output.instance_02_public_ip -->
<g id="edge14" class="edge">
<title>[root] meta.count&#45;boundary (EachMode fixup)&#45;&gt;[root] output.instance_02_public_ip</title>
<path fill="none" stroke="black" d="M775.5,-503.7C775.5,-495.98 775.5,-486.71 775.5,-478.11"/>
<polygon fill="black" stroke="black" points="779,-478.1 775.5,-468.1 772,-478.1 779,-478.1"/>
</g>
<!-- [root] meta.count&#45;boundary (EachMode fixup)&#45;&gt;[root] output.instance_03_public_ip -->
<g id="edge15" class="edge">
<title>[root] meta.count&#45;boundary (EachMode fixup)&#45;&gt;[root] output.instance_03_public_ip</title>
<path fill="none" stroke="black" d="M830.86,-504.85C865.55,-494.73 910.52,-481.62 947.39,-470.87"/>
<polygon fill="black" stroke="black" points="948.45,-474.2 957.07,-468.04 946.49,-467.48 948.45,-474.2"/>
</g>
<!-- [root] provider[&quot;registry.terraform.io/hashicorp/aws&quot;] (close) -->
<g id="node16" class="node">
<title>[root] provider[&quot;registry.terraform.io/hashicorp/aws&quot;] (close)</title>
<ellipse fill="none" stroke="black" cx="433.5" cy="-450" rx="232.86" ry="18"/>
<text text-anchor="middle" x="433.5" y="-446.3" font-family="Times,serif" font-size="14.00">[root] provider[&quot;registry.terraform.io/hashicorp/aws&quot;] (close)</text>
</g>
<!-- [root] provider[&quot;registry.terraform.io/hashicorp/aws&quot;] (close)&#45;&gt;[root] aws_instance.instance01 (expand) -->
<g id="edge19" class="edge">
<title>[root] provider[&quot;registry.terraform.io/hashicorp/aws&quot;] (close)&#45;&gt;[root] aws_instance.instance01 (expand)</title>
<path fill="none" stroke="black" d="M412.44,-432.05C401.41,-423.18 387.72,-412.17 375.69,-402.48"/>
<polygon fill="black" stroke="black" points="377.65,-399.57 367.67,-396.03 373.26,-405.03 377.65,-399.57"/>
</g>
<!-- [root] provider[&quot;registry.terraform.io/hashicorp/aws&quot;] (close)&#45;&gt;[root] aws_instance.instance02 (expand) -->
<g id="edge20" class="edge">
<title>[root] provider[&quot;registry.terraform.io/hashicorp/aws&quot;] (close)&#45;&gt;[root] aws_instance.instance02 (expand)</title>
<path fill="none" stroke="black" d="M454.32,-432.05C465.22,-423.18 478.75,-412.17 490.65,-402.48"/>
<polygon fill="black" stroke="black" points="493.03,-405.06 498.58,-396.03 488.61,-399.63 493.03,-405.06"/>
</g>
<!-- [root] provider[&quot;registry.terraform.io/hashicorp/aws&quot;] (close)&#45;&gt;[root] aws_instance.instance03 (expand) -->
<g id="edge21" class="edge">
<title>[root] provider[&quot;registry.terraform.io/hashicorp/aws&quot;] (close)&#45;&gt;[root] aws_instance.instance03 (expand)</title>
<path fill="none" stroke="black" d="M556.64,-434.71C633.56,-425.32 734.86,-412.08 833.87,-396.05"/>
<polygon fill="black" stroke="black" points="834.45,-399.5 843.75,-394.44 833.32,-392.59 834.45,-399.5"/>
</g>
<!-- [root] provider[&quot;registry.terraform.io/hashicorp/aws&quot;] (close)&#45;&gt;[root] aws_route_table_association.rta01 (expand) -->
<g id="edge22" class="edge">
<title>[root] provider[&quot;registry.terraform.io/hashicorp/aws&quot;] (close)&#45;&gt;[root] aws_route_table_association.rta01 (expand)</title>
<path fill="none" stroke="black" d="M500.43,-432.68C542.39,-422.44 596.71,-409.19 640.88,-398.42"/>
<polygon fill="black" stroke="black" points="641.83,-401.79 650.72,-396.02 640.17,-394.99 641.83,-401.79"/>
</g>
<!-- [root] root -->
<g id="node17" class="node">
<title>[root] root</title>
<ellipse fill="none" stroke="black" cx="604.5" cy="-594" rx="48.19" ry="18"/>
<text text-anchor="middle" x="604.5" y="-590.3" font-family="Times,serif" font-size="14.00">[root] root</text>
</g>
<!-- [root] root&#45;&gt;[root] meta.count&#45;boundary (EachMode fixup) -->
<g id="edge23" class="edge">
<title>[root] root&#45;&gt;[root] meta.count&#45;boundary (EachMode fixup)</title>
<path fill="none" stroke="black" d="M635.86,-580.16C660.9,-569.91 696.45,-555.36 725.42,-543.5"/>
<polygon fill="black" stroke="black" points="727.04,-546.62 734.97,-539.59 724.38,-540.14 727.04,-546.62"/>
</g>
<!-- [root] root&#45;&gt;[root] provider[&quot;registry.terraform.io/hashicorp/aws&quot;] (close) -->
<g id="edge24" class="edge">
<title>[root] root&#45;&gt;[root] provider[&quot;registry.terraform.io/hashicorp/aws&quot;] (close)</title>
<path fill="none" stroke="black" d="M585.55,-577.26C555.6,-552.39 497.15,-503.85 462.09,-474.74"/>
<polygon fill="black" stroke="black" points="464.06,-471.83 454.13,-468.13 459.59,-477.21 464.06,-471.83"/>
</g>
</g>
</svg>
