<?xml version="1.0" encoding="UTF-8" standalone="no"?>
<!DOCTYPE svg PUBLIC "-//W3C//DTD SVG 1.1//EN"
 "http://www.w3.org/Graphics/SVG/1.1/DTD/svg11.dtd">
<!-- Generated by graphviz version 2.48.0 (20210717.1556)
 -->
<!-- Pages: 1 -->
<svg width="2144pt" height="548pt"
 viewBox="0.00 0.00 2144.32 548.00" xmlns="http://www.w3.org/2000/svg" xmlns:xlink="http://www.w3.org/1999/xlink">
<g id="graph0" class="graph" transform="scale(1 1) rotate(0) translate(4 544)">
<polygon fill="white" stroke="transparent" points="-4,4 -4,-544 2140.32,-544 2140.32,4 -4,4"/>
<!-- [root] aws_ebs_volume.vol (expand) -->
<g id="node1" class="node">
<title>[root] aws_ebs_volume.vol (expand)</title>
<polygon fill="none" stroke="black" points="320.28,-252 186.28,-252 186.28,-216 320.28,-216 320.28,-252"/>
<text text-anchor="middle" x="253.28" y="-230.3" font-family="Times,serif" font-size="14.00">aws_ebs_volume.vol</text>
</g>
<!-- [root] provider[&quot;registry.terraform.io/hashicorp/aws&quot;] -->
<g id="node17" class="node">
<title>[root] provider[&quot;registry.terraform.io/hashicorp/aws&quot;]</title>
<polygon fill="none" stroke="black" points="258.28,-108 0.22,-90 258.28,-72 516.35,-90 258.28,-108"/>
<text text-anchor="middle" x="258.28" y="-86.3" font-family="Times,serif" font-size="14.00">provider[&quot;registry.terraform.io/hashicorp/aws&quot;]</text>
</g>
<!-- [root] aws_ebs_volume.vol (expand)&#45;&gt;[root] provider[&quot;registry.terraform.io/hashicorp/aws&quot;] -->
<g id="edge1" class="edge">
<title>[root] aws_ebs_volume.vol (expand)&#45;&gt;[root] provider[&quot;registry.terraform.io/hashicorp/aws&quot;]</title>
<path fill="none" stroke="black" d="M248.04,-215.91C243.22,-197.97 237.38,-168.95 241.28,-144 242.66,-135.18 245.26,-125.82 248.02,-117.46"/>
<polygon fill="black" stroke="black" points="251.38,-118.45 251.39,-107.86 244.78,-116.13 251.38,-118.45"/>
</g>
<!-- [root] var.ebs_size -->
<g id="node24" class="node">
<title>[root] var.ebs_size</title>
<polygon fill="none" stroke="black" points="329.78,-180 250.78,-180 250.78,-144 335.78,-144 335.78,-174 329.78,-180"/>
<polyline fill="none" stroke="black" points="329.78,-180 329.78,-174 "/>
<polyline fill="none" stroke="black" points="335.78,-174 329.78,-174 "/>
<text text-anchor="middle" x="293.28" y="-158.3" font-family="Times,serif" font-size="14.00">var.ebs_size</text>
</g>
<!-- [root] aws_ebs_volume.vol (expand)&#45;&gt;[root] var.ebs_size -->
<g id="edge2" class="edge">
<title>[root] aws_ebs_volume.vol (expand)&#45;&gt;[root] var.ebs_size</title>
<path fill="none" stroke="black" d="M263.17,-215.7C267.77,-207.64 273.34,-197.89 278.44,-188.98"/>
<polygon fill="black" stroke="black" points="281.59,-190.52 283.51,-180.1 275.51,-187.05 281.59,-190.52"/>
</g>
<!-- [root] var.public_azs -->
<g id="node27" class="node">
<title>[root] var.public_azs</title>
<polygon fill="none" stroke="black" points="557.78,-180 466.78,-180 466.78,-144 563.78,-144 563.78,-174 557.78,-180"/>
<polyline fill="none" stroke="black" points="557.78,-180 557.78,-174 "/>
<polyline fill="none" stroke="black" points="563.78,-174 557.78,-174 "/>
<text text-anchor="middle" x="515.28" y="-158.3" font-family="Times,serif" font-size="14.00">var.public_azs</text>
</g>
<!-- [root] aws_ebs_volume.vol (expand)&#45;&gt;[root] var.public_azs -->
<g id="edge3" class="edge">
<title>[root] aws_ebs_volume.vol (expand)&#45;&gt;[root] var.public_azs</title>
<path fill="none" stroke="black" d="M320.5,-216.09C357.93,-206.55 405.6,-194.18 456.67,-180.13"/>
<polygon fill="black" stroke="black" points="457.87,-183.43 466.58,-177.39 456.01,-176.68 457.87,-183.43"/>
</g>
<!-- [root] aws_instance.web (expand) -->
<g id="node2" class="node">
<title>[root] aws_instance.web (expand)</title>
<polygon fill="none" stroke="black" points="1347.28,-324 1229.28,-324 1229.28,-288 1347.28,-288 1347.28,-324"/>
<text text-anchor="middle" x="1288.28" y="-302.3" font-family="Times,serif" font-size="14.00">aws_instance.web</text>
</g>
<!-- [root] aws_security_group.sg01 (expand) -->
<g id="node10" class="node">
<title>[root] aws_security_group.sg01 (expand)</title>
<polygon fill="none" stroke="black" points="1178.78,-252 1019.78,-252 1019.78,-216 1178.78,-216 1178.78,-252"/>
<text text-anchor="middle" x="1099.28" y="-230.3" font-family="Times,serif" font-size="14.00">aws_security_group.sg01</text>
</g>
<!-- [root] aws_instance.web (expand)&#45;&gt;[root] aws_security_group.sg01 (expand) -->
<g id="edge4" class="edge">
<title>[root] aws_instance.web (expand)&#45;&gt;[root] aws_security_group.sg01 (expand)</title>
<path fill="none" stroke="black" d="M1242.05,-287.88C1215.75,-278.14 1182.64,-265.87 1154.93,-255.61"/>
<polygon fill="black" stroke="black" points="1155.96,-252.26 1145.37,-252.07 1153.53,-258.82 1155.96,-252.26"/>
</g>
<!-- [root] aws_subnet.sn (expand) -->
<g id="node11" class="node">
<title>[root] aws_subnet.sn (expand)</title>
<polygon fill="none" stroke="black" points="891.28,-252 793.28,-252 793.28,-216 891.28,-216 891.28,-252"/>
<text text-anchor="middle" x="842.28" y="-230.3" font-family="Times,serif" font-size="14.00">aws_subnet.sn</text>
</g>
<!-- [root] aws_instance.web (expand)&#45;&gt;[root] aws_subnet.sn (expand) -->
<g id="edge5" class="edge">
<title>[root] aws_instance.web (expand)&#45;&gt;[root] aws_subnet.sn (expand)</title>
<path fill="none" stroke="black" d="M1228.98,-299.68C1154.47,-292.38 1022.65,-277.42 901.35,-252.06"/>
<polygon fill="black" stroke="black" points="902.02,-248.62 891.52,-249.97 900.57,-255.47 902.02,-248.62"/>
</g>
<!-- [root] var.default_instance_key_name -->
<g id="node21" class="node">
<title>[root] var.default_instance_key_name</title>
<polygon fill="none" stroke="black" points="1383.78,-252 1196.78,-252 1196.78,-216 1389.78,-216 1389.78,-246 1383.78,-252"/>
<polyline fill="none" stroke="black" points="1383.78,-252 1383.78,-246 "/>
<polyline fill="none" stroke="black" points="1389.78,-246 1383.78,-246 "/>
<text text-anchor="middle" x="1293.28" y="-230.3" font-family="Times,serif" font-size="14.00">var.default_instance_key_name</text>
</g>
<!-- [root] aws_instance.web (expand)&#45;&gt;[root] var.default_instance_key_name -->
<g id="edge7" class="edge">
<title>[root] aws_instance.web (expand)&#45;&gt;[root] var.default_instance_key_name</title>
<path fill="none" stroke="black" d="M1289.52,-287.7C1290.07,-279.98 1290.73,-270.71 1291.35,-262.11"/>
<polygon fill="black" stroke="black" points="1294.84,-262.33 1292.06,-252.1 1287.86,-261.83 1294.84,-262.33"/>
</g>
<!-- [root] var.default_instance_os_tag -->
<g id="node22" class="node">
<title>[root] var.default_instance_os_tag</title>
<polygon fill="none" stroke="black" points="1574.28,-252 1408.28,-252 1408.28,-216 1580.28,-216 1580.28,-246 1574.28,-252"/>
<polyline fill="none" stroke="black" points="1574.28,-252 1574.28,-246 "/>
<polyline fill="none" stroke="black" points="1580.28,-246 1574.28,-246 "/>
<text text-anchor="middle" x="1494.28" y="-230.3" font-family="Times,serif" font-size="14.00">var.default_instance_os_tag</text>
</g>
<!-- [root] aws_instance.web (expand)&#45;&gt;[root] var.default_instance_os_tag -->
<g id="edge8" class="edge">
<title>[root] aws_instance.web (expand)&#45;&gt;[root] var.default_instance_os_tag</title>
<path fill="none" stroke="black" d="M1338.41,-287.97C1367.32,-278.14 1403.85,-265.73 1434.28,-255.39"/>
<polygon fill="black" stroke="black" points="1435.59,-258.64 1443.93,-252.11 1433.33,-252.01 1435.59,-258.64"/>
</g>
<!-- [root] var.default_instance_type -->
<g id="node23" class="node">
<title>[root] var.default_instance_type</title>
<polygon fill="none" stroke="black" points="1752.28,-252 1598.28,-252 1598.28,-216 1758.28,-216 1758.28,-246 1752.28,-252"/>
<polyline fill="none" stroke="black" points="1752.28,-252 1752.28,-246 "/>
<polyline fill="none" stroke="black" points="1758.28,-246 1752.28,-246 "/>
<text text-anchor="middle" x="1678.28" y="-230.3" font-family="Times,serif" font-size="14.00">var.default_instance_type</text>
</g>
<!-- [root] aws_instance.web (expand)&#45;&gt;[root] var.default_instance_type -->
<g id="edge9" class="edge">
<title>[root] aws_instance.web (expand)&#45;&gt;[root] var.default_instance_type</title>
<path fill="none" stroke="black" d="M1347.44,-294.84C1405.98,-284.73 1498.41,-268.61 1588.16,-252.19"/>
<polygon fill="black" stroke="black" points="1589.03,-255.59 1598.24,-250.35 1587.77,-248.71 1589.03,-255.59"/>
</g>
<!-- [root] local.amazon_ami_by_regions (expand) -->
<g id="node36" class="node">
<title>[root] local.amazon_ami_by_regions (expand)</title>
<ellipse fill="none" stroke="black" cx="1956.28" cy="-234" rx="180.07" ry="18"/>
<text text-anchor="middle" x="1956.28" y="-230.3" font-family="Times,serif" font-size="14.00">[root] local.amazon_ami_by_regions (expand)</text>
</g>
<!-- [root] aws_instance.web (expand)&#45;&gt;[root] local.amazon_ami_by_regions (expand) -->
<g id="edge6" class="edge">
<title>[root] aws_instance.web (expand)&#45;&gt;[root] local.amazon_ami_by_regions (expand)</title>
<path fill="none" stroke="black" d="M1347.56,-298.79C1454.52,-287.58 1682.06,-263.74 1826.64,-248.59"/>
<polygon fill="black" stroke="black" points="1827.32,-252.03 1836.9,-247.51 1826.59,-245.07 1827.32,-252.03"/>
</g>
<!-- [root] aws_internet_gateway.ig01 (expand) -->
<g id="node3" class="node">
<title>[root] aws_internet_gateway.ig01 (expand)</title>
<polygon fill="none" stroke="black" points="507.78,-252 338.78,-252 338.78,-216 507.78,-216 507.78,-252"/>
<text text-anchor="middle" x="423.28" y="-230.3" font-family="Times,serif" font-size="14.00">aws_internet_gateway.ig01</text>
</g>
<!-- [root] aws_vpc.vpc01 (expand) -->
<g id="node13" class="node">
<title>[root] aws_vpc.vpc01 (expand)</title>
<polygon fill="none" stroke="black" points="684.78,-180 581.78,-180 581.78,-144 684.78,-144 684.78,-180"/>
<text text-anchor="middle" x="633.28" y="-158.3" font-family="Times,serif" font-size="14.00">aws_vpc.vpc01</text>
</g>
<!-- [root] aws_internet_gateway.ig01 (expand)&#45;&gt;[root] aws_vpc.vpc01 (expand) -->
<g id="edge10" class="edge">
<title>[root] aws_internet_gateway.ig01 (expand)&#45;&gt;[root] aws_vpc.vpc01 (expand)</title>
<path fill="none" stroke="black" d="M474.39,-215.97C503.86,-206.14 541.1,-193.73 572.12,-183.39"/>
<polygon fill="black" stroke="black" points="573.57,-186.59 581.95,-180.11 571.36,-179.95 573.57,-186.59"/>
</g>
<!-- [root] var.igw_name -->
<g id="node25" class="node">
<title>[root] var.igw_name</title>
<polygon fill="none" stroke="black" points="442.78,-180 353.78,-180 353.78,-144 448.78,-144 448.78,-174 442.78,-180"/>
<polyline fill="none" stroke="black" points="442.78,-180 442.78,-174 "/>
<polyline fill="none" stroke="black" points="448.78,-174 442.78,-174 "/>
<text text-anchor="middle" x="401.28" y="-158.3" font-family="Times,serif" font-size="14.00">var.igw_name</text>
</g>
<!-- [root] aws_internet_gateway.ig01 (expand)&#45;&gt;[root] var.igw_name -->
<g id="edge11" class="edge">
<title>[root] aws_internet_gateway.ig01 (expand)&#45;&gt;[root] var.igw_name</title>
<path fill="none" stroke="black" d="M417.84,-215.7C415.39,-207.9 412.44,-198.51 409.72,-189.83"/>
<polygon fill="black" stroke="black" points="413,-188.59 406.66,-180.1 406.32,-190.69 413,-188.59"/>
</g>
<!-- [root] aws_lb.alb01 (expand) -->
<g id="node4" class="node">
<title>[root] aws_lb.alb01 (expand)</title>
<polygon fill="none" stroke="black" points="1000.78,-324 909.78,-324 909.78,-288 1000.78,-288 1000.78,-324"/>
<text text-anchor="middle" x="955.28" y="-302.3" font-family="Times,serif" font-size="14.00">aws_lb.alb01</text>
</g>
<!-- [root] aws_lb.alb01 (expand)&#45;&gt;[root] aws_security_group.sg01 (expand) -->
<g id="edge12" class="edge">
<title>[root] aws_lb.alb01 (expand)&#45;&gt;[root] aws_security_group.sg01 (expand)</title>
<path fill="none" stroke="black" d="M990.51,-287.88C1009.86,-278.47 1034.06,-266.71 1054.71,-256.67"/>
<polygon fill="black" stroke="black" points="1056.46,-259.71 1063.92,-252.19 1053.4,-253.41 1056.46,-259.71"/>
</g>
<!-- [root] aws_lb.alb01 (expand)&#45;&gt;[root] aws_subnet.sn (expand) -->
<g id="edge13" class="edge">
<title>[root] aws_lb.alb01 (expand)&#45;&gt;[root] aws_subnet.sn (expand)</title>
<path fill="none" stroke="black" d="M927.64,-287.88C912.87,-278.72 894.49,-267.34 878.58,-257.48"/>
<polygon fill="black" stroke="black" points="880.38,-254.48 870.03,-252.19 876.69,-260.43 880.38,-254.48"/>
</g>
<!-- [root] var.alb_name -->
<g id="node18" class="node">
<title>[root] var.alb_name</title>
<polygon fill="none" stroke="black" points="995.28,-252 909.28,-252 909.28,-216 1001.28,-216 1001.28,-246 995.28,-252"/>
<polyline fill="none" stroke="black" points="995.28,-252 995.28,-246 "/>
<polyline fill="none" stroke="black" points="1001.28,-246 995.28,-246 "/>
<text text-anchor="middle" x="955.28" y="-230.3" font-family="Times,serif" font-size="14.00">var.alb_name</text>
</g>
<!-- [root] aws_lb.alb01 (expand)&#45;&gt;[root] var.alb_name -->
<g id="edge14" class="edge">
<title>[root] aws_lb.alb01 (expand)&#45;&gt;[root] var.alb_name</title>
<path fill="none" stroke="black" d="M955.28,-287.7C955.28,-279.98 955.28,-270.71 955.28,-262.11"/>
<polygon fill="black" stroke="black" points="958.78,-262.1 955.28,-252.1 951.78,-262.1 958.78,-262.1"/>
</g>
<!-- [root] aws_lb_listener.front_end (expand) -->
<g id="node5" class="node">
<title>[root] aws_lb_listener.front_end (expand)</title>
<polygon fill="none" stroke="black" points="811.28,-396 649.28,-396 649.28,-360 811.28,-360 811.28,-396"/>
<text text-anchor="middle" x="730.28" y="-374.3" font-family="Times,serif" font-size="14.00">aws_lb_listener.front_end</text>
</g>
<!-- [root] aws_lb_listener.front_end (expand)&#45;&gt;[root] aws_lb.alb01 (expand) -->
<g id="edge15" class="edge">
<title>[root] aws_lb_listener.front_end (expand)&#45;&gt;[root] aws_lb.alb01 (expand)</title>
<path fill="none" stroke="black" d="M785.04,-359.97C819.99,-349.09 865.16,-335.04 900.18,-324.14"/>
<polygon fill="black" stroke="black" points="901.26,-327.47 909.77,-321.16 899.18,-320.79 901.26,-327.47"/>
</g>
<!-- [root] aws_lb_target_group.tg01 (expand) -->
<g id="node6" class="node">
<title>[root] aws_lb_target_group.tg01 (expand)</title>
<polygon fill="none" stroke="black" points="811.78,-324 648.78,-324 648.78,-288 811.78,-288 811.78,-324"/>
<text text-anchor="middle" x="730.28" y="-302.3" font-family="Times,serif" font-size="14.00">aws_lb_target_group.tg01</text>
</g>
<!-- [root] aws_lb_listener.front_end (expand)&#45;&gt;[root] aws_lb_target_group.tg01 (expand) -->
<g id="edge16" class="edge">
<title>[root] aws_lb_listener.front_end (expand)&#45;&gt;[root] aws_lb_target_group.tg01 (expand)</title>
<path fill="none" stroke="black" d="M730.28,-359.7C730.28,-351.98 730.28,-342.71 730.28,-334.11"/>
<polygon fill="black" stroke="black" points="733.78,-334.1 730.28,-324.1 726.78,-334.1 733.78,-334.1"/>
</g>
<!-- [root] aws_lb_target_group.tg01 (expand)&#45;&gt;[root] aws_vpc.vpc01 (expand) -->
<g id="edge17" class="edge">
<title>[root] aws_lb_target_group.tg01 (expand)&#45;&gt;[root] aws_vpc.vpc01 (expand)</title>
<path fill="none" stroke="black" d="M696.64,-287.88C682.26,-278.99 666.47,-266.86 656.28,-252 643.7,-233.65 638,-208.89 635.42,-190.15"/>
<polygon fill="black" stroke="black" points="638.89,-189.69 634.26,-180.16 631.94,-190.5 638.89,-189.69"/>
</g>
<!-- [root] var.alb_tg_name -->
<g id="node19" class="node">
<title>[root] var.alb_tg_name</title>
<polygon fill="none" stroke="black" points="768.78,-252 665.78,-252 665.78,-216 774.78,-216 774.78,-246 768.78,-252"/>
<polyline fill="none" stroke="black" points="768.78,-252 768.78,-246 "/>
<polyline fill="none" stroke="black" points="774.78,-246 768.78,-246 "/>
<text text-anchor="middle" x="720.28" y="-230.3" font-family="Times,serif" font-size="14.00">var.alb_tg_name</text>
</g>
<!-- [root] aws_lb_target_group.tg01 (expand)&#45;&gt;[root] var.alb_tg_name -->
<g id="edge18" class="edge">
<title>[root] aws_lb_target_group.tg01 (expand)&#45;&gt;[root] var.alb_tg_name</title>
<path fill="none" stroke="black" d="M727.81,-287.7C726.71,-279.98 725.38,-270.71 724.16,-262.11"/>
<polygon fill="black" stroke="black" points="727.61,-261.51 722.73,-252.1 720.68,-262.5 727.61,-261.51"/>
</g>
<!-- [root] aws_lb_target_group_attachment.tga01 (expand) -->
<g id="node7" class="node">
<title>[root] aws_lb_target_group_attachment.tga01 (expand)</title>
<polygon fill="none" stroke="black" points="1066.78,-396 829.78,-396 829.78,-360 1066.78,-360 1066.78,-396"/>
<text text-anchor="middle" x="948.28" y="-374.3" font-family="Times,serif" font-size="14.00">aws_lb_target_group_attachment.tga01</text>
</g>
<!-- [root] aws_lb_target_group_attachment.tga01 (expand)&#45;&gt;[root] aws_instance.web (expand) -->
<g id="edge19" class="edge">
<title>[root] aws_lb_target_group_attachment.tga01 (expand)&#45;&gt;[root] aws_instance.web (expand)</title>
<path fill="none" stroke="black" d="M1031.02,-359.97C1088.76,-348.08 1164.91,-332.4 1219.36,-321.19"/>
<polygon fill="black" stroke="black" points="1220.17,-324.6 1229.26,-319.15 1218.76,-317.74 1220.17,-324.6"/>
</g>
<!-- [root] aws_lb_target_group_attachment.tga01 (expand)&#45;&gt;[root] aws_lb_target_group.tg01 (expand) -->
<g id="edge20" class="edge">
<title>[root] aws_lb_target_group_attachment.tga01 (expand)&#45;&gt;[root] aws_lb_target_group.tg01 (expand)</title>
<path fill="none" stroke="black" d="M895.23,-359.97C864.51,-350.1 825.65,-337.62 793.36,-327.25"/>
<polygon fill="black" stroke="black" points="794.16,-323.84 783.57,-324.11 792.02,-330.5 794.16,-323.84"/>
</g>
<!-- [root] aws_route_table.rt01 (expand) -->
<g id="node8" class="node">
<title>[root] aws_route_table.rt01 (expand)</title>
<polygon fill="none" stroke="black" points="592.28,-324 458.28,-324 458.28,-288 592.28,-288 592.28,-324"/>
<text text-anchor="middle" x="525.28" y="-302.3" font-family="Times,serif" font-size="14.00">aws_route_table.rt01</text>
</g>
<!-- [root] aws_route_table.rt01 (expand)&#45;&gt;[root] aws_internet_gateway.ig01 (expand) -->
<g id="edge21" class="edge">
<title>[root] aws_route_table.rt01 (expand)&#45;&gt;[root] aws_internet_gateway.ig01 (expand)</title>
<path fill="none" stroke="black" d="M500.33,-287.88C487.24,-278.89 471.02,-267.76 456.85,-258.03"/>
<polygon fill="black" stroke="black" points="458.56,-254.96 448.33,-252.19 454.6,-260.73 458.56,-254.96"/>
</g>
<!-- [root] var.rt_name -->
<g id="node29" class="node">
<title>[root] var.rt_name</title>
<polygon fill="none" stroke="black" points="602.78,-252 525.78,-252 525.78,-216 608.78,-216 608.78,-246 602.78,-252"/>
<polyline fill="none" stroke="black" points="602.78,-252 602.78,-246 "/>
<polyline fill="none" stroke="black" points="608.78,-246 602.78,-246 "/>
<text text-anchor="middle" x="567.28" y="-230.3" font-family="Times,serif" font-size="14.00">var.rt_name</text>
</g>
<!-- [root] aws_route_table.rt01 (expand)&#45;&gt;[root] var.rt_name -->
<g id="edge22" class="edge">
<title>[root] aws_route_table.rt01 (expand)&#45;&gt;[root] var.rt_name</title>
<path fill="none" stroke="black" d="M535.67,-287.7C540.55,-279.56 546.47,-269.69 551.86,-260.7"/>
<polygon fill="black" stroke="black" points="554.88,-262.48 557.02,-252.1 548.87,-258.88 554.88,-262.48"/>
</g>
<!-- [root] aws_route_table_association.rta01 (expand) -->
<g id="node9" class="node">
<title>[root] aws_route_table_association.rta01 (expand)</title>
<polygon fill="none" stroke="black" points="631.28,-396 421.28,-396 421.28,-360 631.28,-360 631.28,-396"/>
<text text-anchor="middle" x="526.28" y="-374.3" font-family="Times,serif" font-size="14.00">aws_route_table_association.rta01</text>
</g>
<!-- [root] aws_route_table_association.rta01 (expand)&#45;&gt;[root] aws_route_table.rt01 (expand) -->
<g id="edge23" class="edge">
<title>[root] aws_route_table_association.rta01 (expand)&#45;&gt;[root] aws_route_table.rt01 (expand)</title>
<path fill="none" stroke="black" d="M526.04,-359.7C525.93,-351.98 525.79,-342.71 525.67,-334.11"/>
<polygon fill="black" stroke="black" points="529.17,-334.05 525.53,-324.1 522.17,-334.15 529.17,-334.05"/>
</g>
<!-- [root] aws_route_table_association.rta01 (expand)&#45;&gt;[root] aws_subnet.sn (expand) -->
<g id="edge24" class="edge">
<title>[root] aws_route_table_association.rta01 (expand)&#45;&gt;[root] aws_subnet.sn (expand)</title>
<path fill="none" stroke="black" d="M552.29,-359.97C567.04,-349.98 585.63,-336.84 601.28,-324 619.27,-309.25 618.89,-299.19 639.28,-288 697.12,-256.28 719.58,-269.14 783.28,-252 783.38,-251.97 783.48,-251.95 783.58,-251.92"/>
<polygon fill="black" stroke="black" points="784.34,-255.34 793.06,-249.32 782.49,-248.59 784.34,-255.34"/>
</g>
<!-- [root] aws_security_group.sg01 (expand)&#45;&gt;[root] aws_vpc.vpc01 (expand) -->
<g id="edge25" class="edge">
<title>[root] aws_security_group.sg01 (expand)&#45;&gt;[root] aws_vpc.vpc01 (expand)</title>
<path fill="none" stroke="black" d="M1019.76,-217.5C1016.56,-216.98 1013.39,-216.47 1010.28,-216 873.39,-195.18 834.23,-206.84 695.06,-180.18"/>
<polygon fill="black" stroke="black" points="695.35,-176.67 684.86,-178.19 694.01,-183.54 695.35,-176.67"/>
</g>
<!-- [root] var.sg01_ingress -->
<g id="node30" class="node">
<title>[root] var.sg01_ingress</title>
<polygon fill="none" stroke="black" points="1153.28,-180 1049.28,-180 1049.28,-144 1159.28,-144 1159.28,-174 1153.28,-180"/>
<polyline fill="none" stroke="black" points="1153.28,-180 1153.28,-174 "/>
<polyline fill="none" stroke="black" points="1159.28,-174 1153.28,-174 "/>
<text text-anchor="middle" x="1104.28" y="-158.3" font-family="Times,serif" font-size="14.00">var.sg01_ingress</text>
</g>
<!-- [root] aws_security_group.sg01 (expand)&#45;&gt;[root] var.sg01_ingress -->
<g id="edge26" class="edge">
<title>[root] aws_security_group.sg01 (expand)&#45;&gt;[root] var.sg01_ingress</title>
<path fill="none" stroke="black" d="M1100.52,-215.7C1101.07,-207.98 1101.73,-198.71 1102.35,-190.11"/>
<polygon fill="black" stroke="black" points="1105.84,-190.33 1103.06,-180.1 1098.86,-189.83 1105.84,-190.33"/>
</g>
<!-- [root] var.sg01_name -->
<g id="node31" class="node">
<title>[root] var.sg01_name</title>
<polygon fill="none" stroke="black" points="1272.78,-180 1177.78,-180 1177.78,-144 1278.78,-144 1278.78,-174 1272.78,-180"/>
<polyline fill="none" stroke="black" points="1272.78,-180 1272.78,-174 "/>
<polyline fill="none" stroke="black" points="1278.78,-174 1272.78,-174 "/>
<text text-anchor="middle" x="1228.28" y="-158.3" font-family="Times,serif" font-size="14.00">var.sg01_name</text>
</g>
<!-- [root] aws_security_group.sg01 (expand)&#45;&gt;[root] var.sg01_name -->
<g id="edge27" class="edge">
<title>[root] aws_security_group.sg01 (expand)&#45;&gt;[root] var.sg01_name</title>
<path fill="none" stroke="black" d="M1130.84,-215.88C1147.94,-206.6 1169.27,-195.03 1187.6,-185.08"/>
<polygon fill="black" stroke="black" points="1189.48,-188.04 1196.6,-180.19 1186.15,-181.88 1189.48,-188.04"/>
</g>
<!-- [root] var.sg01_tags -->
<g id="node32" class="node">
<title>[root] var.sg01_tags</title>
<polygon fill="none" stroke="black" points="1383.78,-180 1296.78,-180 1296.78,-144 1389.78,-144 1389.78,-174 1383.78,-180"/>
<polyline fill="none" stroke="black" points="1383.78,-180 1383.78,-174 "/>
<polyline fill="none" stroke="black" points="1389.78,-174 1383.78,-174 "/>
<text text-anchor="middle" x="1343.28" y="-158.3" font-family="Times,serif" font-size="14.00">var.sg01_tags</text>
</g>
<!-- [root] aws_security_group.sg01 (expand)&#45;&gt;[root] var.sg01_tags -->
<g id="edge28" class="edge">
<title>[root] aws_security_group.sg01 (expand)&#45;&gt;[root] var.sg01_tags</title>
<path fill="none" stroke="black" d="M1161.54,-215.99C1196.07,-206.44 1240.02,-194.14 1286.79,-180.41"/>
<polygon fill="black" stroke="black" points="1287.9,-183.73 1296.5,-177.55 1285.92,-177.02 1287.9,-183.73"/>
</g>
<!-- [root] aws_subnet.sn (expand)&#45;&gt;[root] aws_vpc.vpc01 (expand) -->
<g id="edge29" class="edge">
<title>[root] aws_subnet.sn (expand)&#45;&gt;[root] aws_vpc.vpc01 (expand)</title>
<path fill="none" stroke="black" d="M793.28,-216.59C763.54,-206.63 725.35,-193.84 693.74,-183.25"/>
<polygon fill="black" stroke="black" points="694.75,-179.9 684.16,-180.04 692.53,-186.53 694.75,-179.9"/>
</g>
<!-- [root] aws_subnet.sn (expand)&#45;&gt;[root] var.public_azs -->
<g id="edge30" class="edge">
<title>[root] aws_subnet.sn (expand)&#45;&gt;[root] var.public_azs</title>
<path fill="none" stroke="black" d="M793.13,-218.39C789.81,-217.54 786.5,-216.74 783.28,-216 693.62,-195.5 666.7,-201.21 573.81,-180.21"/>
<polygon fill="black" stroke="black" points="574.53,-176.79 564,-177.95 572.96,-183.61 574.53,-176.79"/>
</g>
<!-- [root] var.public_subnet_cidr_block -->
<g id="node28" class="node">
<title>[root] var.public_subnet_cidr_block</title>
<polygon fill="none" stroke="black" points="879.78,-180 702.78,-180 702.78,-144 885.78,-144 885.78,-174 879.78,-180"/>
<polyline fill="none" stroke="black" points="879.78,-180 879.78,-174 "/>
<polyline fill="none" stroke="black" points="885.78,-174 879.78,-174 "/>
<text text-anchor="middle" x="794.28" y="-158.3" font-family="Times,serif" font-size="14.00">var.public_subnet_cidr_block</text>
</g>
<!-- [root] aws_subnet.sn (expand)&#45;&gt;[root] var.public_subnet_cidr_block -->
<g id="edge31" class="edge">
<title>[root] aws_subnet.sn (expand)&#45;&gt;[root] var.public_subnet_cidr_block</title>
<path fill="none" stroke="black" d="M830.42,-215.7C824.78,-207.47 817.93,-197.48 811.71,-188.42"/>
<polygon fill="black" stroke="black" points="814.55,-186.37 806.01,-180.1 808.78,-190.33 814.55,-186.37"/>
</g>
<!-- [root] var.sn_name_prefix -->
<g id="node33" class="node">
<title>[root] var.sn_name_prefix</title>
<polygon fill="none" stroke="black" points="1024.78,-180 903.78,-180 903.78,-144 1030.78,-144 1030.78,-174 1024.78,-180"/>
<polyline fill="none" stroke="black" points="1024.78,-180 1024.78,-174 "/>
<polyline fill="none" stroke="black" points="1030.78,-174 1024.78,-174 "/>
<text text-anchor="middle" x="967.28" y="-158.3" font-family="Times,serif" font-size="14.00">var.sn_name_prefix</text>
</g>
<!-- [root] aws_subnet.sn (expand)&#45;&gt;[root] var.sn_name_prefix -->
<g id="edge32" class="edge">
<title>[root] aws_subnet.sn (expand)&#45;&gt;[root] var.sn_name_prefix</title>
<path fill="none" stroke="black" d="M872.86,-215.88C889.36,-206.64 909.91,-195.13 927.62,-185.21"/>
<polygon fill="black" stroke="black" points="929.57,-188.13 936.59,-180.19 926.15,-182.02 929.57,-188.13"/>
</g>
<!-- [root] aws_volume_attachment.ebs_att (expand) -->
<g id="node12" class="node">
<title>[root] aws_volume_attachment.ebs_att (expand)</title>
<polygon fill="none" stroke="black" points="402.78,-396 203.78,-396 203.78,-360 402.78,-360 402.78,-396"/>
<text text-anchor="middle" x="303.28" y="-374.3" font-family="Times,serif" font-size="14.00">aws_volume_attachment.ebs_att</text>
</g>
<!-- [root] aws_volume_attachment.ebs_att (expand)&#45;&gt;[root] aws_ebs_volume.vol (expand) -->
<g id="edge33" class="edge">
<title>[root] aws_volume_attachment.ebs_att (expand)&#45;&gt;[root] aws_ebs_volume.vol (expand)</title>
<path fill="none" stroke="black" d="M297.25,-359.87C288.66,-335.46 272.8,-290.43 262.66,-261.64"/>
<polygon fill="black" stroke="black" points="265.96,-260.46 259.34,-252.19 259.36,-262.78 265.96,-260.46"/>
</g>
<!-- [root] aws_volume_attachment.ebs_att (expand)&#45;&gt;[root] aws_instance.web (expand) -->
<g id="edge34" class="edge">
<title>[root] aws_volume_attachment.ebs_att (expand)&#45;&gt;[root] aws_instance.web (expand)</title>
<path fill="none" stroke="black" d="M403.03,-361.06C406.14,-360.68 409.24,-360.33 412.28,-360 676.56,-331.49 743.95,-340.08 1009.28,-324 1080.76,-319.67 1162.54,-314.68 1218.99,-311.23"/>
<polygon fill="black" stroke="black" points="1219.46,-314.71 1229.23,-310.61 1219.03,-307.73 1219.46,-314.71"/>
</g>
<!-- [root] aws_vpc.vpc01 (expand)&#45;&gt;[root] provider[&quot;registry.terraform.io/hashicorp/aws&quot;] -->
<g id="edge35" class="edge">
<title>[root] aws_vpc.vpc01 (expand)&#45;&gt;[root] provider[&quot;registry.terraform.io/hashicorp/aws&quot;]</title>
<path fill="none" stroke="black" d="M581.46,-146.16C578.36,-145.4 575.29,-144.67 572.28,-144 497.89,-127.4 412.55,-113.31 349.63,-103.84"/>
<polygon fill="black" stroke="black" points="350.14,-100.38 339.73,-102.36 349.11,-107.3 350.14,-100.38"/>
</g>
<!-- [root] var.vpc_cidr_block -->
<g id="node34" class="node">
<title>[root] var.vpc_cidr_block</title>
<polygon fill="none" stroke="black" points="670.28,-108 552.28,-108 552.28,-72 676.28,-72 676.28,-102 670.28,-108"/>
<polyline fill="none" stroke="black" points="670.28,-108 670.28,-102 "/>
<polyline fill="none" stroke="black" points="676.28,-102 670.28,-102 "/>
<text text-anchor="middle" x="614.28" y="-86.3" font-family="Times,serif" font-size="14.00">var.vpc_cidr_block</text>
</g>
<!-- [root] aws_vpc.vpc01 (expand)&#45;&gt;[root] var.vpc_cidr_block -->
<g id="edge36" class="edge">
<title>[root] aws_vpc.vpc01 (expand)&#45;&gt;[root] var.vpc_cidr_block</title>
<path fill="none" stroke="black" d="M628.59,-143.7C626.47,-135.9 623.92,-126.51 621.57,-117.83"/>
<polygon fill="black" stroke="black" points="624.92,-116.84 618.93,-108.1 618.17,-118.67 624.92,-116.84"/>
</g>
<!-- [root] var.vpc_name -->
<g id="node35" class="node">
<title>[root] var.vpc_name</title>
<polygon fill="none" stroke="black" points="783.78,-108 694.78,-108 694.78,-72 789.78,-72 789.78,-102 783.78,-108"/>
<polyline fill="none" stroke="black" points="783.78,-108 783.78,-102 "/>
<polyline fill="none" stroke="black" points="789.78,-102 783.78,-102 "/>
<text text-anchor="middle" x="742.28" y="-86.3" font-family="Times,serif" font-size="14.00">var.vpc_name</text>
</g>
<!-- [root] aws_vpc.vpc01 (expand)&#45;&gt;[root] var.vpc_name -->
<g id="edge37" class="edge">
<title>[root] aws_vpc.vpc01 (expand)&#45;&gt;[root] var.vpc_name</title>
<path fill="none" stroke="black" d="M659.95,-143.88C674.07,-134.81 691.59,-123.55 706.84,-113.76"/>
<polygon fill="black" stroke="black" points="708.99,-116.54 715.52,-108.19 705.21,-110.65 708.99,-116.54"/>
</g>
<!-- [root] output.alb_dns -->
<g id="node14" class="node">
<title>[root] output.alb_dns</title>
<polygon fill="none" stroke="black" points="1177.78,-396 1084.78,-396 1084.78,-360 1183.78,-360 1183.78,-390 1177.78,-396"/>
<polyline fill="none" stroke="black" points="1177.78,-396 1177.78,-390 "/>
<polyline fill="none" stroke="black" points="1183.78,-390 1177.78,-390 "/>
<text text-anchor="middle" x="1134.28" y="-374.3" font-family="Times,serif" font-size="14.00">output.alb_dns</text>
</g>
<!-- [root] output.alb_dns&#45;&gt;[root] aws_lb.alb01 (expand) -->
<g id="edge45" class="edge">
<title>[root] output.alb_dns&#45;&gt;[root] aws_lb.alb01 (expand)</title>
<path fill="none" stroke="black" d="M1090.49,-359.88C1065.7,-350.18 1034.5,-337.98 1008.33,-327.74"/>
<polygon fill="black" stroke="black" points="1009.52,-324.45 998.93,-324.07 1006.97,-330.97 1009.52,-324.45"/>
</g>
<!-- [root] output.instance_public_ip -->
<g id="node15" class="node">
<title>[root] output.instance_public_ip</title>
<polygon fill="none" stroke="black" points="1358.28,-396 1202.28,-396 1202.28,-360 1364.28,-360 1364.28,-390 1358.28,-396"/>
<polyline fill="none" stroke="black" points="1358.28,-396 1358.28,-390 "/>
<polyline fill="none" stroke="black" points="1364.28,-390 1358.28,-390 "/>
<text text-anchor="middle" x="1283.28" y="-374.3" font-family="Times,serif" font-size="14.00">output.instance_public_ip</text>
</g>
<!-- [root] output.instance_public_ip&#45;&gt;[root] aws_instance.web (expand) -->
<g id="edge46" class="edge">
<title>[root] output.instance_public_ip&#45;&gt;[root] aws_instance.web (expand)</title>
<path fill="none" stroke="black" d="M1284.52,-359.7C1285.07,-351.98 1285.73,-342.71 1286.35,-334.11"/>
<polygon fill="black" stroke="black" points="1289.84,-334.33 1287.06,-324.1 1282.86,-333.83 1289.84,-334.33"/>
</g>
<!-- [root] output.instance_tags -->
<g id="node16" class="node">
<title>[root] output.instance_tags</title>
<polygon fill="none" stroke="black" points="1507.78,-396 1382.78,-396 1382.78,-360 1513.78,-360 1513.78,-390 1507.78,-396"/>
<polyline fill="none" stroke="black" points="1507.78,-396 1507.78,-390 "/>
<polyline fill="none" stroke="black" points="1513.78,-390 1507.78,-390 "/>
<text text-anchor="middle" x="1448.28" y="-374.3" font-family="Times,serif" font-size="14.00">output.instance_tags</text>
</g>
<!-- [root] output.instance_tags&#45;&gt;[root] aws_instance.web (expand) -->
<g id="edge47" class="edge">
<title>[root] output.instance_tags&#45;&gt;[root] aws_instance.web (expand)</title>
<path fill="none" stroke="black" d="M1409.14,-359.88C1387.27,-350.31 1359.83,-338.3 1336.62,-328.15"/>
<polygon fill="black" stroke="black" points="1337.86,-324.87 1327.3,-324.07 1335.06,-331.28 1337.86,-324.87"/>
</g>
<!-- [root] var.aws_region -->
<g id="node20" class="node">
<title>[root] var.aws_region</title>
<polygon fill="none" stroke="black" points="229.28,-36 133.28,-36 133.28,0 235.28,0 235.28,-30 229.28,-36"/>
<polyline fill="none" stroke="black" points="229.28,-36 229.28,-30 "/>
<polyline fill="none" stroke="black" points="235.28,-30 229.28,-30 "/>
<text text-anchor="middle" x="184.28" y="-14.3" font-family="Times,serif" font-size="14.00">var.aws_region</text>
</g>
<!-- [root] provider[&quot;registry.terraform.io/hashicorp/aws&quot;]&#45;&gt;[root] var.aws_region -->
<g id="edge52" class="edge">
<title>[root] provider[&quot;registry.terraform.io/hashicorp/aws&quot;]&#45;&gt;[root] var.aws_region</title>
<path fill="none" stroke="black" d="M241.49,-73.12C232.09,-64.22 220.18,-52.95 209.66,-43"/>
<polygon fill="black" stroke="black" points="211.97,-40.37 202.3,-36.04 207.16,-45.46 211.97,-40.37"/>
</g>
<!-- [root] var.provider_default_tags -->
<g id="node26" class="node">
<title>[root] var.provider_default_tags</title>
<polygon fill="none" stroke="black" points="407.28,-36 253.28,-36 253.28,0 413.28,0 413.28,-30 407.28,-36"/>
<polyline fill="none" stroke="black" points="407.28,-36 407.28,-30 "/>
<polyline fill="none" stroke="black" points="413.28,-30 407.28,-30 "/>
<text text-anchor="middle" x="333.28" y="-14.3" font-family="Times,serif" font-size="14.00">var.provider_default_tags</text>
</g>
<!-- [root] provider[&quot;registry.terraform.io/hashicorp/aws&quot;]&#45;&gt;[root] var.provider_default_tags -->
<g id="edge53" class="edge">
<title>[root] provider[&quot;registry.terraform.io/hashicorp/aws&quot;]&#45;&gt;[root] var.provider_default_tags</title>
<path fill="none" stroke="black" d="M275.3,-73.12C284.83,-64.22 296.91,-52.95 307.57,-43"/>
<polygon fill="black" stroke="black" points="310.1,-45.43 315.02,-36.04 305.32,-40.31 310.1,-45.43"/>
</g>
<!-- [root] meta.count&#45;boundary (EachMode fixup) -->
<g id="node37" class="node">
<title>[root] meta.count&#45;boundary (EachMode fixup)</title>
<ellipse fill="none" stroke="black" cx="957.28" cy="-450" rx="180.07" ry="18"/>
<text text-anchor="middle" x="957.28" y="-446.3" font-family="Times,serif" font-size="14.00">[root] meta.count&#45;boundary (EachMode fixup)</text>
</g>
<!-- [root] meta.count&#45;boundary (EachMode fixup)&#45;&gt;[root] aws_lb_listener.front_end (expand) -->
<g id="edge38" class="edge">
<title>[root] meta.count&#45;boundary (EachMode fixup)&#45;&gt;[root] aws_lb_listener.front_end (expand)</title>
<path fill="none" stroke="black" d="M904.63,-432.76C871.95,-422.69 829.71,-409.66 794.99,-398.95"/>
<polygon fill="black" stroke="black" points="796,-395.6 785.41,-396 793.94,-402.29 796,-395.6"/>
</g>
<!-- [root] meta.count&#45;boundary (EachMode fixup)&#45;&gt;[root] aws_lb_target_group_attachment.tga01 (expand) -->
<g id="edge39" class="edge">
<title>[root] meta.count&#45;boundary (EachMode fixup)&#45;&gt;[root] aws_lb_target_group_attachment.tga01 (expand)</title>
<path fill="none" stroke="black" d="M955.06,-431.7C954.07,-423.98 952.87,-414.71 951.77,-406.11"/>
<polygon fill="black" stroke="black" points="955.23,-405.58 950.48,-396.1 948.29,-406.47 955.23,-405.58"/>
</g>
<!-- [root] meta.count&#45;boundary (EachMode fixup)&#45;&gt;[root] aws_route_table_association.rta01 (expand) -->
<g id="edge40" class="edge">
<title>[root] meta.count&#45;boundary (EachMode fixup)&#45;&gt;[root] aws_route_table_association.rta01 (expand)</title>
<path fill="none" stroke="black" d="M867.19,-434.37C801.57,-423.71 712.15,-409.19 641.36,-397.69"/>
<polygon fill="black" stroke="black" points="641.48,-394.16 631.05,-396.02 640.36,-401.07 641.48,-394.16"/>
</g>
<!-- [root] meta.count&#45;boundary (EachMode fixup)&#45;&gt;[root] aws_volume_attachment.ebs_att (expand) -->
<g id="edge41" class="edge">
<title>[root] meta.count&#45;boundary (EachMode fixup)&#45;&gt;[root] aws_volume_attachment.ebs_att (expand)</title>
<path fill="none" stroke="black" d="M828.83,-437.37C698.71,-425.45 505.05,-407.25 413.2,-396.06"/>
<polygon fill="black" stroke="black" points="413.4,-392.55 403.04,-394.8 412.54,-399.5 413.4,-392.55"/>
</g>
<!-- [root] meta.count&#45;boundary (EachMode fixup)&#45;&gt;[root] output.alb_dns -->
<g id="edge42" class="edge">
<title>[root] meta.count&#45;boundary (EachMode fixup)&#45;&gt;[root] output.alb_dns</title>
<path fill="none" stroke="black" d="M999.23,-432.41C1023.9,-422.65 1055.33,-410.23 1081.65,-399.81"/>
<polygon fill="black" stroke="black" points="1083.09,-403.01 1091.1,-396.08 1080.51,-396.5 1083.09,-403.01"/>
</g>
<!-- [root] meta.count&#45;boundary (EachMode fixup)&#45;&gt;[root] output.instance_public_ip -->
<g id="edge43" class="edge">
<title>[root] meta.count&#45;boundary (EachMode fixup)&#45;&gt;[root] output.instance_public_ip</title>
<path fill="none" stroke="black" d="M1029.63,-433.46C1078.18,-423.04 1142.47,-409.24 1194.17,-398.14"/>
<polygon fill="black" stroke="black" points="1194.96,-401.55 1204,-396.02 1193.49,-394.7 1194.96,-401.55"/>
</g>
<!-- [root] meta.count&#45;boundary (EachMode fixup)&#45;&gt;[root] output.instance_tags -->
<g id="edge44" class="edge">
<title>[root] meta.count&#45;boundary (EachMode fixup)&#45;&gt;[root] output.instance_tags</title>
<path fill="none" stroke="black" d="M1078.8,-436.64C1159.41,-427.7 1267.69,-414.28 1372.39,-396.06"/>
<polygon fill="black" stroke="black" points="1373.26,-399.46 1382.51,-394.29 1372.05,-392.57 1373.26,-399.46"/>
</g>
<!-- [root] provider[&quot;registry.terraform.io/hashicorp/aws&quot;] (close) -->
<g id="node38" class="node">
<title>[root] provider[&quot;registry.terraform.io/hashicorp/aws&quot;] (close)</title>
<ellipse fill="none" stroke="black" cx="526.28" cy="-450" rx="232.86" ry="18"/>
<text text-anchor="middle" x="526.28" y="-446.3" font-family="Times,serif" font-size="14.00">[root] provider[&quot;registry.terraform.io/hashicorp/aws&quot;] (close)</text>
</g>
<!-- [root] provider[&quot;registry.terraform.io/hashicorp/aws&quot;] (close)&#45;&gt;[root] aws_lb_listener.front_end (expand) -->
<g id="edge48" class="edge">
<title>[root] provider[&quot;registry.terraform.io/hashicorp/aws&quot;] (close)&#45;&gt;[root] aws_lb_listener.front_end (expand)</title>
<path fill="none" stroke="black" d="M574.89,-432.32C603.71,-422.43 640.44,-409.83 670.96,-399.36"/>
<polygon fill="black" stroke="black" points="672.31,-402.59 680.63,-396.04 670.04,-395.97 672.31,-402.59"/>
</g>
<!-- [root] provider[&quot;registry.terraform.io/hashicorp/aws&quot;] (close)&#45;&gt;[root] aws_lb_target_group_attachment.tga01 (expand) -->
<g id="edge49" class="edge">
<title>[root] provider[&quot;registry.terraform.io/hashicorp/aws&quot;] (close)&#45;&gt;[root] aws_lb_target_group_attachment.tga01 (expand)</title>
<path fill="none" stroke="black" d="M619.68,-433.51C683.3,-422.96 767.87,-408.93 835.29,-397.74"/>
<polygon fill="black" stroke="black" points="836.24,-401.13 845.53,-396.04 835.09,-394.23 836.24,-401.13"/>
</g>
<!-- [root] provider[&quot;registry.terraform.io/hashicorp/aws&quot;] (close)&#45;&gt;[root] aws_route_table_association.rta01 (expand) -->
<g id="edge50" class="edge">
<title>[root] provider[&quot;registry.terraform.io/hashicorp/aws&quot;] (close)&#45;&gt;[root] aws_route_table_association.rta01 (expand)</title>
<path fill="none" stroke="black" d="M526.28,-431.7C526.28,-423.98 526.28,-414.71 526.28,-406.11"/>
<polygon fill="black" stroke="black" points="529.78,-406.1 526.28,-396.1 522.78,-406.1 529.78,-406.1"/>
</g>
<!-- [root] provider[&quot;registry.terraform.io/hashicorp/aws&quot;] (close)&#45;&gt;[root] aws_volume_attachment.ebs_att (expand) -->
<g id="edge51" class="edge">
<title>[root] provider[&quot;registry.terraform.io/hashicorp/aws&quot;] (close)&#45;&gt;[root] aws_volume_attachment.ebs_att (expand)</title>
<path fill="none" stroke="black" d="M473.44,-432.41C441.67,-422.44 401.02,-409.68 367.42,-399.13"/>
<polygon fill="black" stroke="black" points="368.28,-395.73 357.69,-396.08 366.18,-402.41 368.28,-395.73"/>
</g>
<!-- [root] root -->
<g id="node39" class="node">
<title>[root] root</title>
<ellipse fill="none" stroke="black" cx="741.28" cy="-522" rx="48.19" ry="18"/>
<text text-anchor="middle" x="741.28" y="-518.3" font-family="Times,serif" font-size="14.00">[root] root</text>
</g>
<!-- [root] root&#45;&gt;[root] meta.count&#45;boundary (EachMode fixup) -->
<g id="edge54" class="edge">
<title>[root] root&#45;&gt;[root] meta.count&#45;boundary (EachMode fixup)</title>
<path fill="none" stroke="black" d="M776.47,-509.6C809.09,-499.03 858.3,-483.08 897.15,-470.49"/>
<polygon fill="black" stroke="black" points="898.35,-473.78 906.79,-467.36 896.19,-467.12 898.35,-473.78"/>
</g>
<!-- [root] root&#45;&gt;[root] provider[&quot;registry.terraform.io/hashicorp/aws&quot;] (close) -->
<g id="edge55" class="edge">
<title>[root] root&#45;&gt;[root] provider[&quot;registry.terraform.io/hashicorp/aws&quot;] (close)</title>
<path fill="none" stroke="black" d="M706.26,-509.6C674.01,-499.1 625.47,-483.29 586.93,-470.74"/>
<polygon fill="black" stroke="black" points="587.95,-467.4 577.36,-467.63 585.78,-474.05 587.95,-467.4"/>
</g>
</g>
</svg>
